# xmcd
#
# Track frame offsets: 
#        150
#        16727
#        34982
#        56895
#        75870
#        93570
#        111789
#        132511
#        151731
#        170517
#        191138
#        212797
#        240264
#        265376
#
# Disc length: 3781 seconds
#
# Revision: 0
# Processed by: cddbd v1.5.2PL0 Copyright (c) Steve Scherf et al.
# Submitted via: ExactAudioCopy v0.99pb5
#
DISCID=b70ec30e
DTITLE=Chris Stapleton - Traveller
DYEAR=2016
DGENRE=Country
TTITLE0=Traveller
TTITLE1=Fire Away
TTITLE2=Tennessee Whiskey
TTITLE3=Parachute
TTITLE4=Whiskey And You
TTITLE5=Nobody To Blame
TTITLE6=More Of You
TTITLE7=When The Stars Come Out
TTITLE8=Daddy Doesn't Pray Anymore
TTITLE9=Might As Well Get Stoned
TTITLE10=Was It 26
TTITLE11=The Devil Named Music
TTITLE12=Outlaw State Of Mind
TTITLE13=Sometimes I Cry
EXTD=
EXTT0=
EXTT1=
EXTT2=
EXTT3=
EXTT4=
EXTT5=
EXTT6=
EXTT7=
EXTT8=
EXTT9=
EXTT10=
EXTT11=
EXTT12=
EXTT13=
PLAYORDER=
